<svg xmlns="http://www.w3.org/2000/svg" viewBox="0 0 114.65 38.59"><title>Asset 42</title><g id="Layer_2" data-name="Layer 2"><g id="Layer_1-2" data-name="Layer 1"><path fill="#FFFFFF" stroke="#000000" stroke-width="4" d="M28.8,3.92a10.48,10.48,0,0,1,1.67-1.44,14.19,14.19,0,0,1,1.74-1.06A12,12,0,0,1,35.91.19a14.84,14.84,0,0,1,7.33.7c4.6,1.61,8.58,4.46,12.54,7.2,7.89,5.56,15.81,11.23,24.64,15.17a51.52,51.52,0,0,0,13.79,4,34.92,34.92,0,0,0,7.15.18A22.14,22.14,0,0,0,108.24,26a13.22,13.22,0,0,0,1.55-.78,9.72,9.72,0,0,0,1.34-1,6.13,6.13,0,0,0,1.81-2.71,7.35,7.35,0,0,0-1.23-6.24,15.75,15.75,0,0,0-5-4.6,22.82,22.82,0,0,0-6.43-2.51,32.1,32.1,0,0,0-13.83.06,84.58,84.58,0,0,0-13.59,4c-8.93,3.37-17.63,7.51-26.6,11.26-4.49,1.85-9,3.62-13.75,5A60.25,60.25,0,0,1,18,31.31a21.46,21.46,0,0,1-7.51-.55,15.25,15.25,0,0,1-6.64-3.68A12.68,12.68,0,0,1,.06,16.74,11.64,11.64,0,0,1,1,13.12,12.26,12.26,0,0,1,5.81,7.55a15.34,15.34,0,0,1,7-2.1,25.37,25.37,0,0,1,7.27.69A40,40,0,0,1,27,8.47c9,3.85,16.74,9.74,24.75,15.11,4,2.71,8,5.39,12.25,7.7a45.18,45.18,0,0,0,13.33,5.15,24,24,0,0,0,7.07.28,17.94,17.94,0,0,0,6.71-1.94,12.83,12.83,0,0,0,1.47-.9,11.61,11.61,0,0,0,1.28-1.13A8.84,8.84,0,0,0,95.76,30a8.63,8.63,0,0,0,.09-6.51,9.66,9.66,0,0,0-4.35-4.89,10.89,10.89,0,0,0-3.13-1.19A14,14,0,0,0,85,17a32.58,32.58,0,0,0-13.29,4c-8.44,4.35-16.36,10.1-25.43,14A42,42,0,0,1,32,38.54a25.65,25.65,0,0,1-14.21-2.92,15.48,15.48,0,0,1-2.92-2.17,13,13,0,0,1-2.32-2.79,11.24,11.24,0,0,1-1.71-7,9.1,9.1,0,0,1,3.49-6.29,13.26,13.26,0,0,1,6.91-2.52h-.06a10.16,10.16,0,0,1,3.16-.06,7.8,7.8,0,0,1,3.07,1.05,6.89,6.89,0,0,1,2.36,2.38,9.65,9.65,0,0,1,.75,1.51c.2.52.32,1.05.48,1.59a1.17,1.17,0,1,1-2.24.66.58.58,0,0,1,0-.14l0-.18c-.07-.43-.09-.89-.19-1.31a5.71,5.71,0,0,0-.4-1.23,4.88,4.88,0,0,0-1.56-2A6.36,6.36,0,0,0,24.07,16a8.62,8.62,0,0,0-2.77-.19h-.06a11.82,11.82,0,0,0-6.66,1.95A8.39,8.39,0,0,0,11,23.72a10.48,10.48,0,0,0,1.58,6.87,13.55,13.55,0,0,0,5.22,4.86c4.3,2.26,9.33,2.48,14,1.64a53.71,53.71,0,0,0,13.39-4.54c4.29-2,8.48-4.35,12.62-6.81s8.34-4.94,12.81-7S79.89,15,85,15A14.63,14.63,0,0,1,92.41,17a11.51,11.51,0,0,1,4.9,5.9,10,10,0,0,1-2.53,10.75,13.3,13.3,0,0,1-1.47,1.23,14.81,14.81,0,0,1-1.63,1,19.73,19.73,0,0,1-7.17,1.94,25.23,25.23,0,0,1-7.36-.39A46.2,46.2,0,0,1,63.61,32c-4.23-2.4-8.22-5.14-12.19-7.91s-7.89-5.58-11.94-8.21a83,83,0,0,0-12.65-7A38.6,38.6,0,0,0,20,6.64,24.73,24.73,0,0,0,12.87,6,14.72,14.72,0,0,0,6.16,8.12a11.12,11.12,0,0,0-4.41,5.31A11,11,0,0,0,1,16.82a12.63,12.63,0,0,0,0,1.74,14.23,14.23,0,0,0,.3,1.71,11.31,11.31,0,0,0,3.5,5.8A13.55,13.55,0,0,0,10.9,29a19.73,19.73,0,0,0,6.9.06,59.12,59.12,0,0,0,13.7-3.57c4.45-1.68,8.86-3.54,13.24-5.53C53.54,16,62.31,11.81,71.59,8.65A82.19,82.19,0,0,1,86,5.07a34,34,0,0,1,14.93.75A26,26,0,0,1,107.75,9a17.39,17.39,0,0,1,5.36,5.37,8.79,8.79,0,0,1,1.11,7.57,7.44,7.44,0,0,1-2.28,3.17,11.39,11.39,0,0,1-1.56,1.12,15.7,15.7,0,0,1-1.71.81,23.29,23.29,0,0,1-7.25,1.43,35,35,0,0,1-7.31-.37,51.64,51.64,0,0,1-13.85-4.44c-8.79-4.14-16.62-9.92-24.5-15.49-2-1.39-4-2.77-6-4a25.74,25.74,0,0,0-3.17-1.75,17.9,17.9,0,0,0-3.38-1.27,11.12,11.12,0,0,0-7,.25,10.27,10.27,0,0,0-1.52.76,8.38,8.38,0,0,0-1.31,1.05,7,7,0,0,0-1.06,1.25,5.84,5.84,0,0,0-.41.68,2.85,2.85,0,0,0-.25.64,1.88,1.88,0,0,1-3.76-.12,2,2,0,0,1,.48-1.2Z"/></g></g></svg>